<?xml version="1.0" encoding="utf-8"?>
<!-- Generator: Adobe Illustrator 27.5.0, SVG Export Plug-In . SVG Version: 6.00 Build 0)  -->
<svg version="1.1" xmlns="http://www.w3.org/2000/svg" xmlns:xlink="http://www.w3.org/1999/xlink" x="0px" y="0px"
	 viewBox="0 0 2500 2000" style="enable-background:new 0 0 2500 2000;" xml:space="preserve">

<g id="Layer_1">
	<g>
		<path style="fill:#FFE4D2;" d="M1402.864,1636.959c-5.48,0.315-11.239,0.985-16.792,0.414c-0.124,0.258-0.236,0.495-0.326,0.689
			c-53.519,19.722-90.723,18.68-144.272,38.322c-25.194,9.241-69.531,22.516-95.805,13.526
			c-20.795-7.116-51.191-29.964-64.246-47.339c-32.747-43.584-33.918-106.346-47.34-157.797
			c-14.808-56.766-22.883-107.5-40.576-163.433c-17.67-55.862-28.469-116.37-47.937-171.594c-0.389-9.178-4.003-17.786-6.916-26.529
			c-3.769-11.314-7.605-22.605-11.306-33.942c-7.03-21.539-13.808-43.16-20.336-64.857c-13.055-43.392-25.105-87.086-36.137-131.036
			c-10.883-43.355-20.901-86.954-29.995-130.719c-9.094-43.766-15.81-88.567-30.111-131.038
			c-5.545-16.468-14.545-37.476-36.016-32.851c-5.581,1.202-10.444,3.963-14.372,7.785c-0.453-1.773-3.279-2.547-4.146-0.624
			c-6.206,13.757-11.268,27.315-15.169,41.884c-4.096,15.297-7.882,30.656-11.634,46.041c-7.034,28.841-12.941,58.402-23.856,86.092
			c-10.129,25.696-24.154,50.56-26.248,78.629c-2.169,29.082,13.81,49.809,28.917,72.783
			c30.587,46.519,44.519,100.733,55.537,154.658c12.293,60.161,23.563,120.548,35.552,180.773
			c6.573,33.019,11.602,66.955,22.231,98.98c3.161,9.526,6.877,19.377,11.244,29.042c-12.554,41.152-23.386,82.78-38.546,123.142
			c-16.546,44.051-36.342,86.724-59.795,127.535c-11.678,20.321-24.21,40.152-37.54,59.43c-6.666,9.641-13.539,19.141-20.606,28.491
			c-6.73,8.903-15.767,17.858-16.575,29.588c-1.401,20.319,23.761,38.298,37.956,49.064
			c118.942,90.214,273.595,133.466,421.039,138.382c23.602,0.787,48.017,1.902,70.212-7.543
			c42.969-18.285,59.15-64.317,78.376-102.978c11.957-24.045,22.649-46.957,39.057-68.017
			c14.769-18.956,24.756-37.641,34.065-59.821c8.008-19.078,23.015-38.973,38.835-53.219c8.313-7.487,19.773-10.233,27.77-18.116
			c1.256-1.238,2.37-2.574,3.361-3.972C1407.867,1636.684,1405.293,1636.82,1402.864,1636.959z"/>
		<path style="fill:#FFE4D2;" d="M1602.982,394.837c-5.549-18.691-19.464-33.865-37.564-41.022
			c-15.133-5.983-37.597-6.704-47.657,7.506c-4.689,0.507-8.806,4.449-7.341,10.803c11.115,48.239,33.597,94.244,38.399,143.926
			c0.778,8.053,10.145,10.662,14.889,4.033c13.309-18.597,26.601-37.678,33.511-59.724
			C1603.509,440.29,1609.131,415.547,1602.982,394.837z"/>
		<path style="fill:#FFE4D2;" d="M1700.176,628.159c-17.653-13.631-41.724-25.22-64.327-18.549
			c-14.336,4.232-26.99,13.347-38.555,23.605c-5.726,3.367-10.907,7.576-16.218,11.89c-8.65,7.026-17.192,14.248-25,22.212
			c-14.491,14.78-26.831,31.781-33.91,51.37c-7.336,20.297-5.277,41.22,8.211,58.339c5.603,7.111,12.703,13.908,20.831,18.068
			c10.66,5.456,22.144,4.924,33.729,3.737c22.64-2.32,42.71-8.495,61.248-21.971c17.855-12.981,34.523-27.613,49.805-43.535
			c14.153-14.746,32.539-33,33.431-54.769C1730.255,658.192,1715.432,639.94,1700.176,628.159z"/>
		<path style="fill:#FFE4D2;" d="M1747.002,836.448c-10.845-18.027-29.085-27.807-49.626-29.836
			c-3.155-0.312-5.649,1.122-7.297,3.308c-25.021,1.417-50.278,19.029-69.321,38.19c-13.616,8.922-26.534,19.328-39.09,29.171
			c-17.673,13.856-35.034,28.461-50.972,44.303c-13.52,13.437-25.915,30.299-24.114,50.377
			c1.741,19.411,16.792,39.788,31.238,52.215c35.201,30.281,82.807-5.932,111.342-27.953c19.663-15.174,39.648-30.057,58.665-46.042
			c15.847-13.322,32.333-28.064,41.022-47.278C1758.285,882.035,1759.064,856.499,1747.002,836.448z"/>
		<path style="fill:#FFE4D2;" d="M1838.526,1136.392c-3.703-27.029-23.763-43.954-48.557-46.844
			c-29.121-3.394-59.992,0.888-88.72,5.791c-16.562,2.826-32.971,6.568-49.102,11.272c-7.786,2.27-15.522,4.729-23.178,7.403
			c-6.919,2.417-14.774,4.38-20.378,9.285c-5.884,2.68-10.529,9.721-13.998,17.426c-5.537-0.103-11.687,4.533-10.28,11.706
			c0.923,5.332,1.679,10.713,3.024,15.955c0.045,0.173,0.12,0.314,0.171,0.48c1.996,8.581,4.988,16.737,11.458,23.536
			c9.977,10.484,25.914,16.668,39.032,21.922c16.083,6.442,33.105,8.64,50.341,8.566c14.751-0.064,30.047-2.175,44.868-0.861
			c4.8,7.63,7.371,16.726,8.431,25.631c0.75,6.302,7.39,12.178,13.778,7.906c22.132-14.799,41.739-32.911,58.051-53.962
			C1828.796,1181.817,1842.133,1162.728,1838.526,1136.392z"/>
		<path style="fill:#FFA294;" d="M1537.026,687.894c-12.109,23.686,2.304,54.859,25.996,66.955s52.921,8.264,76.977-3.09
			c36.323-17.144,63.475-49.622,82.527-84.982c3.084,24.568-6.68,49.505-22.174,68.819c-15.494,19.314-36.297,33.66-57.756,46.012
			c-16.994,9.782-35.062,18.64-54.539,20.904c-19.477,2.264-40.755-3.075-53.646-17.851c-10.651-12.209-14.33-29.492-12.177-45.551
			S1531.87,708.106,1537.026,687.894z"/>
		<path style="fill:#FFA294;" d="M1532.17,925.965c-4.016,13.344,1.432,28.342,11.363,38.118
			c9.93,9.776,23.662,14.894,37.432,17.028c36.632,5.675,74.284-8.431,103.545-31.188c29.261-22.757,51.224-53.506,70.813-84.975
			c0.704,21.49-8.392,42.381-21.292,59.582c-12.9,17.201-29.469,31.242-45.887,45.125c-25.765,21.786-52.143,43.945-83.535,56.312
			c-15.033,5.923-31.556,9.484-47.385,6.239c-22.889-4.692-41.698-24.322-46.389-47.211
			C1506.144,962.106,1515.295,937.167,1532.17,925.965z"/>
		<path style="fill:#FFA294;" d="M1613.015,1121.507c-7.573,7.373-7.718,20.115-2.674,29.404
			c5.044,9.289,14.163,15.657,23.556,20.504c24.312,12.544,52.05,16.997,79.388,17.998c22.587,0.827,45.524-0.636,67.027-7.597
			s41.583-19.793,54.417-38.397c-3.438,50.373-38.479,97.213-85.832,114.734c-4.247-11.484-8.494-22.968-12.741-34.451
			c-32.332,0.723-65.3,1.029-96.206-8.495c-20.948-6.455-41.858-18.865-50.073-39.188
			C1581.661,1155.695,1592.623,1127.461,1613.015,1121.507z"/>
		<path style="fill:#FFA294;" d="M1511.243,369.461c9.463-1.314,19.463-1.934,28.234,1.854c8.989,3.883,15.509,11.909,20.599,20.274
			c24.604,40.433,21.453,95.93-7.57,133.318c-0.262-24.984-8.276-49.158-16.205-72.852
			C1527.381,425.405,1518.463,398.755,1511.243,369.461z"/>
		<path style="fill:#FFA294;" d="M780.147,598.534c30.26,36.572,33.063,88.161,31.076,135.588
			c-1.823,43.521-6.49,86.923-13.961,129.837c-1.512,8.687-3.142,17.575-1.621,26.26c1.571,8.97,6.385,17.013,11.477,24.563
			c23.75,35.213,55.725,64.841,92.643,85.845c-21.539-125.702-52.538-249.781-92.648-370.843
			C803.117,617.724,797.748,604.294,780.147,598.534z"/>
		<path style="fill:#FFA294;" d="M1119.638,1679.383c36.96,8.563,70.359,31.615,91.475,63.134
			c26.889,40.136,32.972,90.23,38.32,138.244c9.558-40.826,36.49-74.961,56.772-111.66c26.52-47.986,45.708-105.653,93.927-131.748
			c-36.366,10.814-72.732,21.627-109.099,32.44C1239.531,1685.109,1185.336,1700.557,1119.638,1679.383z"/>
		<path style="fill:#414042;" d="M1792.609,1435.342l-55.149-208.349c-15.813,2.081-31.97,2.11-47.661,0.921
			c-12.433-0.943-25.01-2.521-37.171-5.324c-10.503-2.421-21.16-4.755-31.16-8.863c-10.572-4.343-19.998-10.697-26.684-20.107
			c-6.437-9.059-10.118-19.912-9.799-31.08c0.321-11.241,4.584-22.189,12.336-30.389c7.956-8.416,18.566-14.747,29.313-18.871
			c11.974-4.594,24.821-5.889,37.042-9.656c12.701-3.916,25.156-8.661,38.392-10.335l-29.885-112.903
			c-7.466,6.674-15.546,12.61-24.551,16.677c-1.415,0.639-3.011,0.612-4.177-0.286c-10.462,10.443-20.985,21.066-32.62,30.118
			c-12.623,9.821-27.016,16.572-43.342,14.525c-12.519-1.57-24.449-5.818-34.406-13.694c-17.629-13.944-24.205-37.033-21.052-58.717
			c1.667-11.461,6.101-22.577,12.536-32.191c4.046-6.045,8.923-11.276,14.057-16.403c6.773-6.763,13.794-13.274,20.926-19.657
			c13.598-12.17,27.359-24.251,41.479-35.813c6.512-5.333,13.068-10.632,19.221-16.382c4.813-4.498,9.51-9.276,13.115-14.815
			l-11.111-41.978c-11.522,5.245-23.786,8.596-36.802,8.722c-13.354,0.129-26.949-2.965-39.003-8.69
			c-8.422-4-16.133-9.717-21.411-17.492c-9.653-14.22-7.866-32.391-2.42-47.831c6.47-18.342,17.366-34.969,29.108-50.338
			c9.474-12.402,19.762-24.151,30.544-35.428L1455.511,161.82c-20.682-56.405-87.542-73.519-112.811-66.746L789.928,237.968
			c-25.269,6.773-63.179,80.021-56.406,105.29l337.492,1294.427c6.773,25.269,88.375,64.058,113.645,57.284l545.124-144.134
			C1755.05,1544.061,1797.229,1491.702,1792.609,1435.342z"/>
		<path style="fill:#FFFFFF;" d="M1750.043,1413.558l-50.638-187.524c-14.858,1.956-24.561-2.415-39.304-3.533
			c-11.682-0.886-23.46-5.315-34.888-7.949c-9.869-2.275-15.996-16.222-25.391-20.082c-9.934-4.081-6.746-13.913-13.029-22.755
			c-6.048-8.512-4.274-14.237-3.975-24.73c0.302-10.563,6.406-7.31,13.69-15.015c7.476-7.908,15.516-10.699,25.614-14.573
			c11.251-4.317,14.572-7.059,26.055-10.599c11.935-3.679,6.552-4.168,18.99-5.741l-27.822-97.156
			c-7.015,6.271-1.696,1.037-10.157,4.858c-1.33,0.601-9.503,6.143-10.599,5.299c-9.831,9.812-13.798,10.483-24.73,18.99
			c-11.861,9.228-29.414,1.441-44.754-0.483c-11.764-1.475-15.665-13.314-25.021-20.715c-16.565-13.102-19.302-28.202-16.34-48.578
			c1.566-10.769,4.994-18.788,11.041-27.822c3.802-5.68,7.542-8.873,12.365-13.69c6.364-6.355,12.73-11.667,19.431-17.665
			c12.777-11.436,23.387-21.815,36.654-32.68c6.119-5.011,10.558-4.312,16.34-9.716c4.523-4.227-8.686-9.369-5.299-14.573
			l-10.599-45.487c-10.827,4.929-11.616-0.118-23.847,0c-12.548,0.121-16.054-6.986-27.38-12.365
			c-7.914-3.758-7.847-16.1-12.807-23.406c-9.071-13.362-7.325-18.613-2.208-33.121c6.08-17.235,1.826-28.971,12.859-43.412
			c8.902-11.653,7.482-14.883,17.613-25.48l-122.602-464.392c-17.833-66.874-71.535-73.342-95.279-66.978L805.747,276.818
			c-23.744,6.365-39.381,63.988-33.017,87.732l320.74,1226.359c6.364,23.743,47.008,73.343,70.751,66.978l539.598-140.56
			C1727.562,1510.962,1759.476,1480.536,1750.043,1413.558z"/>
		<g>
			<path d="M836.831,765.936c-2.721,34.969-9.23,69.466-16.593,103.717c-1.459,6.789,8.967,9.689,10.431,2.876
				c7.565-35.192,14.184-70.665,16.979-106.593C848.189,758.994,837.369,759.029,836.831,765.936L836.831,765.936z"/>
			<path d="M690.789,819.856c23.532-39.702,35.419-84.613,46.098-129.131c5.226-21.787,9.286-44.428,16.575-65.64
				c2.923-8.506,8.512-19.924,18.293-21.896c11.359-2.291,20.687,9.148,27.306,16.767c4.574,5.265,12.198-2.414,7.649-7.649
				c-12.286-14.141-30.843-28.494-48.643-14.044c-17.279,14.027-20.184,41.969-25.061,62.154
				c-12.71,52.604-23.637,106.874-51.558,153.981C677.891,820.399,687.238,825.846,690.789,819.856L690.789,819.856z"/>
			<path d="M679.004,819.893c-18.03,32.502-2.993,67.949,13.668,97.466c19.588,34.704,37.496,69.996,51.312,107.445
				c13.581,36.812,23.602,75.003,29.023,113.883c5.722,41.041,7.229,82.514,14.086,123.425
				c7.591,45.285,19.905,89.646,36.428,132.477c2.48,6.427,12.943,3.635,10.431-2.876c-14.222-36.865-25.343-74.851-32.993-113.624
				c-7.896-40.021-10.44-80.51-14.878-120.978c-8.211-74.887-31.545-146.51-66.377-213.201
				c-17.974-34.413-53.628-78.418-31.36-118.558C691.725,819.26,682.385,813.798,679.004,819.893L679.004,819.893z"/>
			<path d="M1511.661,368.669c15.28-11.738,35.5-14.847,53.676-8.279c20.321,7.343,32.24,26.231,35.17,47.027
				c6.462,45.858-25.359,84.227-49.681,119.482c-3.963,5.744,5.409,11.159,9.341,5.46c27.855-40.376,64.109-86.572,48.332-138.941
				c-12.948-42.979-65.911-62.043-102.298-34.09C1500.756,363.511,1506.138,372.912,1511.661,368.669L1511.661,368.669z"/>
			<path d="M1587.613,806.568c24.832-3.436,47.549-15.651,68.078-29.51c19.299-13.029,37.94-27.52,52.56-45.799
				c13.731-17.168,25.112-38.606,23.094-61.271c-1.572-17.649-10.751-33.822-23.858-45.537
				c-13.226-11.822-30.036-19.519-47.74-21.164c-20.059-1.864-37.272,6.679-54.01,16.8c-36.893,22.308-71.231,56.771-87.765,97.186
				c-8.402,20.538-9.163,44.465,4.366,63.047c14.746,20.253,39.493,28.949,63.837,26.441c6.857-0.706,6.93-11.532,0-10.818
				c-21.319,2.196-43.613-4.643-56.022-23.251c-10.052-15.074-9.047-33.679-2.761-50.014c13.732-35.683,43.999-67.004,75.353-87.881
				c14.208-9.46,30.38-20.023,47.896-20.919c15.661-0.801,31.348,4.767,43.91,13.949c12.786,9.346,22.875,23.172,25.545,39
				c3.583,21.235-7.488,41.991-20.456,57.987c-13.838,17.067-31.291,30.671-49.41,42.903
				c-19.861,13.408-41.469,25.095-65.494,28.419C1577.872,797.087,1580.794,807.511,1587.613,806.568z"/>
			<path d="M1573.738,879.987c-27.262,23.18-67.311,48.685-70.331,88.131c-2.88,37.631,37.861,81.298,76.458,75.943
				c9.502-1.318,17.269-5.874,25.137-11.035c12.527-8.217,24.666-17.038,36.764-25.867c5.568-4.063,0.176-13.453-5.46-9.341
				c-11.786,8.601-23.614,17.179-35.789,25.226c-8.182,5.407-16.086,10.429-26.253,10.675c-24.423,0.59-46.409-21.38-55.691-42.273
				c-20.015-45.054,33.881-79.21,62.814-103.81C1586.698,883.12,1579.015,875.5,1573.738,879.987L1573.738,879.987z"/>
			<path d="M1598.264,858.034c-6.493,5.835-12.918,11.746-19.267,17.737c-5.074,4.788,2.586,12.428,7.649,7.649
				c6.349-5.992,12.774-11.902,19.267-17.737C1611.102,861.02,1603.431,853.39,1598.264,858.034L1598.264,858.034z"/>
			<path d="M1754.513,1263.053c26.823-17.978,50.455-40.552,68.813-67.184c15.927-23.106,27.12-53.677,12.878-80.434
				c-12.702-23.862-41.367-30.121-66.204-30.562c-35.351-0.628-71.555,5.408-105.971,13.004c-6.795,1.5-3.92,11.931,2.876,10.431
				c30.339-6.696,61.289-11.324,92.364-12.492c22.814-0.858,52.752,0.931,66.169,22.608c15.762,25.465,0.63,55.685-15.022,76.985
				c-16.818,22.886-37.8,42.511-61.362,58.303C1743.299,1257.569,1748.708,1266.943,1754.513,1263.053L1754.513,1263.053z"/>
			<path d="M1697.135,1228.988c20.33,0.059,40.66,0.117,60.989,0.168c6.961,0.017,6.971-10.8,0-10.818
				c-20.33-0.051-40.66-0.109-60.989-0.168C1690.173,1218.15,1690.163,1228.968,1697.135,1228.988L1697.135,1228.988z"/>
			<path d="M826.472,1399.151c-1.588,15.329-7.634,30.656-12.817,45.036c-8.664,24.035-18.565,47.626-28.878,70.994
				c-24.218,54.876-50.834,108.829-80.12,161.182c-14.4,25.741-29.452,51.22-46.42,75.367c-4.011,5.708,5.364,11.119,9.341,5.46
				c32.565-46.341,59.234-97.042,84.569-147.592c25.593-51.066,49.954-103.15,69.822-156.746
				c6.385-17.223,13.414-35.287,15.322-53.7C838.007,1392.233,827.184,1392.283,826.472,1399.151L826.472,1399.151z"/>
			<path d="M1350.264,1678c-33.918,61.413-67.2,123.178-100.819,184.755c-7.376,13.51-14.749,27.021-22.19,40.495
				c-3.368,6.099,5.971,11.562,9.341,5.46c33.918-61.413,67.2-123.178,100.819-184.755c7.376-13.51,14.749-27.021,22.19-40.495
				C1362.973,1677.361,1353.634,1671.898,1350.264,1678L1350.264,1678z"/>
			<path d="M1638.88,833.806c-3.316-13.444-6.632-26.889-9.948-40.334c-1.666-6.756-12.101-3.894-10.431,2.876
				c3.316,13.445,6.632,26.889,9.948,40.334C1630.115,843.437,1640.55,840.576,1638.88,833.806L1638.88,833.806z"/>
			<path d="M1586.65,637.193c-14.826-56.891-29.652-113.782-44.479-170.673c-11.363-43.602-22.691-87.213-34.142-130.792
				c-9.675-36.82-19.349-73.639-29.024-110.459c-7.225-27.496-12.177-58.54-27.908-82.691
				c-27.94-42.894-80.773-62.582-130.091-50.091c-12.906,3.269-25.758,6.767-38.634,10.15
				c-67.451,17.72-134.901,35.44-202.352,53.16c-70.508,18.523-141.016,37.047-211.524,55.57
				c-16.286,4.279-32.582,8.519-48.858,12.836c-40.118,10.639-72.668,39.696-85.397,79.606
				c-11.431,35.84-1.012,68.479,7.994,102.759c11.533,43.897,23.065,87.794,34.598,131.691
				c17.313,65.898,34.626,131.796,51.939,197.694c20.328,77.375,40.656,154.75,60.985,232.126
				c20.579,78.328,41.157,156.657,61.736,234.985c18.124,68.985,36.248,137.971,54.372,206.956
				c12.76,48.566,25.519,97.133,38.278,145.699c5.353,20.374,9.675,41.419,16.418,61.405
				c17.624,52.232,70.907,86.484,125.793,80.134c15.032-1.739,29.893-6.537,44.492-10.373
				c64.065-16.831,128.13-33.661,192.195-50.492c72.875-19.145,145.75-38.29,218.625-57.435
				c19.605-5.151,39.21-10.301,58.814-15.451c32.215-8.463,60.196-25.679,77.934-54.647c14.33-23.402,20.12-51.422,16.291-78.578
				c-1.382-9.805-4.187-19.381-6.662-28.955c-9.167-35.457-18.334-70.914-27.5-106.371c-5.878-22.736-11.756-45.472-17.634-68.209
				c-1.741-6.735-12.178-3.88-10.431,2.876c15.045,58.193,30.09,116.387,45.135,174.58c2.502,9.678,5.481,19.457,6.71,29.391
				c3.482,28.141-4.551,57.082-21.921,79.474c-17.895,23.07-42.607,34.179-69.851,41.336
				c-55.735,14.642-111.47,29.284-167.205,43.927c-74.489,19.569-148.978,39.138-223.467,58.708
				c-25.633,6.734-51.266,13.468-76.9,20.202c-16.471,4.327-33.087,9.711-50.239,9.969c-49.757,0.748-93.19-33.375-106.146-80.994
				c-1.681-6.18-3.255-12.391-4.882-18.584c-9.608-36.57-19.216-73.141-28.823-109.711c-15.803-60.152-31.607-120.305-47.41-180.457
				c-19.487-74.175-38.975-148.349-58.462-222.524c-20.402-77.657-40.804-155.313-61.206-232.97
				c-18.841-71.714-37.682-143.427-56.523-215.141c-14.515-55.25-29.031-110.5-43.546-165.749
				c-7.656-29.139-15.311-58.279-22.967-87.418c-5.511-20.977-7.21-42.142-1.181-63.382c11.072-39.007,42.192-65.995,80.695-76.11
				c49.244-12.937,98.487-25.874,147.731-38.811c75.395-19.807,150.789-39.614,226.184-59.421
				c41.819-10.986,83.561-22.343,125.475-32.964c51.631-13.083,106.702,12.966,127.398,62.61
				c9.946,23.857,14.447,50.955,20.984,75.835c12.41,47.228,24.878,94.441,37.192,141.695
				c17.889,68.643,35.777,137.285,53.666,205.928c4.433,17.01,8.866,34.02,13.299,51.03
				C1577.973,646.8,1588.41,643.946,1586.65,637.193L1586.65,637.193z"/>
			<path d="M1704.044,1089.476c-8.545-35.558-17.09-71.116-25.635-106.674c-1.626-6.766-12.06-3.901-10.431,2.876
				c8.545,35.558,17.09,71.116,25.635,106.674C1695.239,1099.118,1705.672,1096.253,1704.044,1089.476L1704.044,1089.476z"/>
			<path d="M1695.266,1229.621c14.402,57.158,28.804,114.316,43.206,171.475c2.238,8.882,4.508,17.756,6.714,26.646
				c6.551,26.402-0.84,54.344-21.685,72.466c-14.407,12.524-32.365,15.988-50.151,20.661
				c-58.315,15.322-116.63,30.644-174.945,45.967c-72.051,18.931-144.103,37.863-216.154,56.794
				c-23.582,6.196-47.164,12.392-70.747,18.589c-19.63,5.158-38.197,10.875-58.778,4.703c-26.059-7.814-42.501-29.024-49.187-54.473
				c-2.456-9.349-4.912-18.698-7.368-28.046c-10.604-40.361-21.207-80.722-31.811-121.083
				c-16.063-61.142-32.127-122.284-48.19-183.426c-19.145-72.87-38.289-145.74-57.434-218.61
				c-19.896-75.731-39.793-151.463-59.689-227.194c-18.077-68.808-36.155-137.616-54.232-206.424
				c-13.931-53.026-27.862-106.051-41.793-159.077c-7.392-28.134-14.783-56.269-22.174-84.403
				c-5.033-19.157-5.627-38.582,3.83-56.815c9.491-18.3,26.018-30.827,45.745-36.234c4.303-1.179,8.633-2.268,12.948-3.402
				c54.54-14.33,109.08-28.66,163.62-42.989c73.08-19.201,146.161-38.402,219.241-57.603c26.034-6.84,52.067-13.68,78.101-20.52
				c11.28-2.964,22.597-6.576,34.068-8.764c30.469-5.811,61.602,9.623,75.872,37.042c3.37,6.475,5.247,13.305,7.079,20.279
				c4.824,18.362,9.649,36.723,14.473,55.085c18.109,68.923,36.218,137.846,54.327,206.769
				c16.418,62.488,32.836,124.976,49.254,187.464c2.612,9.942,5.224,19.885,7.837,29.827c1.768,6.727,12.205,3.875,10.431-2.876
				c-10.225-38.916-20.449-77.831-30.674-116.747c-19.614-74.65-39.227-149.299-58.84-223.949
				c-12.411-47.237-24.687-94.511-37.234-141.712c-10.698-40.247-48.313-68.364-90.556-62.419
				c-12.971,1.825-25.833,6.132-38.463,9.45c-62.436,16.404-124.871,32.809-187.307,49.213
				c-71.492,18.784-142.984,37.568-214.476,56.351c-20.982,5.513-41.965,11.026-62.947,16.539
				c-25.86,6.794-48.859,18.791-61.84,43.736c-16.56,31.822-5.673,62.286,2.623,93.864c11.091,42.215,22.182,84.43,33.272,126.644
				c16.64,63.336,33.28,126.672,49.919,190.008c19.666,74.855,39.332,149.71,58.998,224.564
				c20.141,76.662,40.281,153.323,60.422,229.985c18.064,68.757,36.128,137.513,54.192,206.27
				c13.436,51.14,26.871,102.279,40.307,153.419c6.255,23.81,12.407,47.65,18.767,71.432c8.946,33.455,36.416,58.718,71.341,62.24
				c17.868,1.802,34.941-3.939,51.972-8.414c60.431-15.878,120.861-31.756,181.292-47.634c72.43-19.031,144.86-38.062,217.29-57.093
				c22.461-5.902,44.923-11.804,67.385-17.705c22.896-6.016,43.883-13.6,59.009-33.603c15.483-20.474,19.642-46.208,13.531-70.866
				c-2.216-8.942-4.502-17.868-6.753-26.801c-9.07-35.996-18.139-71.992-27.209-107.988c-5.332-21.162-10.664-42.324-15.996-63.486
				C1703.998,1219.999,1693.562,1222.858,1695.266,1229.621L1695.266,1229.621z"/>
			<path d="M1633.821,1003.927c8.81,33.535,17.619,67.07,26.429,100.604c1.767,6.727,12.205,3.875,10.431-2.876
				c-8.81-33.535-17.619-67.07-26.429-100.604C1642.485,994.323,1632.047,997.176,1633.821,1003.927L1633.821,1003.927z"/>
			<path d="M1581.978,806.235c4.686,18.192,9.372,36.385,14.058,54.577c1.735,6.737,12.172,3.881,10.431-2.876
				c-4.686-18.192-9.372-36.385-14.058-54.577C1590.673,796.622,1580.237,799.478,1581.978,806.235L1581.978,806.235z"/>
			<path d="M1363.027,1680.159c16.755-13.834,33.51-27.668,50.265-41.502c5.373-4.436-2.318-12.051-7.649-7.649
				c-16.755,13.834-33.51,27.668-50.265,41.502C1350.006,1676.946,1357.696,1684.561,1363.027,1680.159L1363.027,1680.159z"/>
			<path d="M1611.911,861.231c32.797-30.291,98.323-79.863,132.26-24.356c26.854,43.922-14.629,89.086-46.394,116.301
				c-17.151,14.693-35.722,27.55-54.622,39.864c-5.811,3.786-0.396,13.156,5.46,9.341c39.823-25.948,85.234-56.672,106.41-100.822
				c10.574-22.046,11.99-46.54-0.373-68.218c-14.475-25.382-39.752-37.327-68.327-30.696c-31.444,7.296-58.858,29.504-82.063,50.937
				C1599.137,858.316,1606.801,865.951,1611.911,861.231L1611.911,861.231z"/>
			<path d="M1664.313,1098.102c-35.45,4.989-93.05,25.564-84.74,71.597c9.474,52.474,68.279,58.904,111.426,58.997
				c6.961,0.015,6.972-10.803,0-10.818c-37.475-0.08-90.651-3.261-100.549-48.827c-8.714-40.117,47.451-56.397,76.738-60.519
				C1674.054,1107.567,1671.133,1097.142,1664.313,1098.102L1664.313,1098.102z"/>
		</g>
	</g>
</g>
</svg>
