<svg version="1.1" id="Layer_1" xmlns="http://www.w3.org/2000/svg" xmlns:xlink="http://www.w3.org/1999/xlink" x="0px" y="0px"
	 width="100%" viewBox="0 0 495 504" enable-background="new 0 0 495 504" xml:space="preserve">

<path fill="#F8F8EE" opacity="1.000000" stroke="none" 
	d="
M432.504639,237.942963 
	C422.820892,236.260590 413.552185,234.512680 404.292786,232.716660 
	C399.422241,231.771942 394.580383,230.675674 389.701660,229.777771 
	C386.809265,229.245407 385.378937,227.831772 384.450592,224.845444 
	C375.457520,195.915421 359.158661,171.848953 335.250702,153.212204 
	C320.156525,141.446014 303.276245,132.829407 284.665161,128.154953 
	C279.831207,126.940842 278.295197,124.543755 277.786163,120.179428 
	C277.077637,114.104164 276.026947,108.068810 274.898438,100.515022 
	C301.397430,105.784538 324.619995,115.891060 345.797577,130.985550 
	C367.037140,146.124237 383.424164,165.442322 395.811005,189.670349 
	C396.137329,188.029694 396.334839,187.498703 396.335266,186.967545 
	C396.349243,169.974548 396.149231,152.978699 396.395111,135.989273 
	C396.656067,117.958557 383.489532,100.044563 360.308624,99.066902 
	C353.156586,98.765259 345.965485,99.197609 338.832794,98.705994 
	C334.826813,98.429901 330.524750,97.690392 327.009338,95.886589 
	C312.421967,88.401642 297.252594,82.774361 281.042938,80.237755 
	C276.657623,79.551506 274.348633,77.644073 273.816223,73.201614 
	C273.403839,69.760460 272.419891,66.391945 271.854431,62.964012 
	C271.011383,57.853832 272.507355,55.757370 277.324005,55.774204 
	C310.474304,55.890049 343.651611,55.323330 376.766602,56.493179 
	C409.109558,57.635746 435.014038,84.740776 435.549164,117.119850 
	C436.179504,155.259888 435.967834,193.414764 435.909454,231.562881 
	C435.906250,233.662598 433.963501,235.759338 432.504639,237.942963 
z"/>
<path fill="#F9F9EE" opacity="1.000000" stroke="none" 
	d="
M79.964409,72.913231 
	C92.306808,60.362442 107.766357,55.856838 124.828255,55.800308 
	C153.660690,55.704781 182.493729,55.805901 211.326385,55.755325 
	C224.640228,55.731972 225.023895,56.114033 222.263931,69.184906 
	C219.757370,81.055672 222.507111,78.527481 209.698868,81.204735 
	C194.984497,84.280418 181.165390,89.728760 167.755646,96.445580 
	C164.782303,97.934898 161.159058,98.484024 157.780045,98.740036 
	C147.026993,99.554733 136.021927,98.864479 125.532089,100.904434 
	C109.850578,103.954018 98.846642,117.349548 98.322990,133.173279 
	C97.708183,151.751648 98.179031,170.365921 98.179031,189.968170 
	C125.099678,141.191467 165.735184,112.645836 218.234421,100.417336 
	C218.857147,100.779793 219.479874,101.142258 220.102600,101.504723 
	C219.457611,105.636879 218.247192,109.773811 218.282013,113.900246 
	C218.361389,123.310135 213.716415,127.145050 204.888367,129.974548 
	C162.083725,143.693970 132.498016,172.205872 114.893692,213.357605 
	C113.265892,217.162735 111.925758,221.126953 110.864838,225.126785 
	C110.064789,228.143112 108.240280,229.478760 105.434647,230.042557 
	C92.456306,232.650528 79.487144,235.304504 66.503120,237.883728 
	C61.516354,238.874313 58.901272,236.742447 58.896156,231.522446 
	C58.858250,192.856339 58.776936,154.189728 58.952503,115.524376 
	C58.994587,106.256493 62.238083,97.650337 67.010971,89.175453 
	C70.249985,88.367569 71.406700,87.101242 69.789948,84.490105 
	C70.544617,83.359032 71.299286,82.227966 72.728546,81.002007 
	C74.270676,79.588409 75.138222,78.269699 76.005760,76.950996 
	C76.005760,76.950996 76.039619,76.731590 76.529037,76.785934 
	C78.197411,77.081451 79.376350,77.322617 81.363808,77.729164 
	C80.746986,75.606422 80.355698,74.259827 79.964409,72.913231 
M77.484489,80.583061 
	C77.484489,80.583061 77.422539,80.477501 77.484489,80.583061 
z"/>
<path fill="#F9F9EF" opacity="1.000000" stroke="none" 
	d="
M120.618721,327.361511 
	C122.438438,330.772095 124.315834,333.753693 125.660362,336.958862 
	C126.393364,338.706238 126.222816,340.832642 126.548653,343.521576 
	C133.727814,344.970276 141.977982,346.635101 151.554321,348.567566 
	C142.947327,358.486664 134.794144,367.882782 126.244621,377.735657 
	C115.447838,366.773895 105.650131,355.737671 99.094627,342.124573 
	C98.563179,342.221313 98.031731,342.318054 97.500282,342.414795 
	C98.173203,355.718872 97.274132,369.346405 99.927742,382.242920 
	C103.054115,397.437134 114.566544,406.369507 129.930359,408.349640 
	C139.353546,409.564117 149.060837,408.574219 159.276871,408.574219 
	C149.759491,400.042847 140.585358,391.819183 130.654022,382.916748 
	C140.478607,374.061432 150.119186,365.372009 160.727264,355.810486 
	C161.681854,367.506592 162.530197,377.901001 163.378540,388.295441 
	C163.660385,388.341675 163.942245,388.387878 164.224091,388.434113 
	C164.628113,386.818481 165.032135,385.202850 165.567856,383.060608 
	C166.759094,383.640289 167.950912,384.037811 168.937912,384.728149 
	C182.578827,394.268738 197.513779,401.015869 213.591766,405.176880 
	C216.847382,406.019440 218.284027,407.725220 218.768280,410.857300 
	C220.215332,420.216705 221.858810,429.546143 223.255814,438.912628 
	C223.975174,443.735748 222.010880,445.329102 215.826645,445.326141 
	C187.508148,445.312561 159.187149,445.493378 130.872635,445.146790 
	C121.801315,445.035736 112.365799,444.852936 103.757507,442.392090 
	C78.995087,435.313354 65.305008,417.544739 59.953266,392.921661 
	C59.080620,388.906677 58.898182,384.680054 58.885452,380.549713 
	C58.796082,351.563202 58.829880,322.576263 58.836544,293.589478 
	C58.838112,286.754272 60.695667,285.208466 67.228058,286.631714 
	C79.877396,289.387726 92.498398,292.279785 105.179565,294.879211 
	C108.088333,295.475433 109.147949,296.868958 110.087486,299.553986 
	C113.319183,308.789581 116.965752,317.880005 120.618721,327.361511 
z"/>
<path fill="#F9F9EE" opacity="1.000000" stroke="none" 
	d="
M338.710144,374.332001 
	C339.180969,373.901306 339.651794,373.470581 340.473999,373.350586 
	C341.117828,374.650970 341.410217,375.640656 341.729095,376.719971 
	C347.492828,373.500458 347.670441,372.845032 343.953064,369.703156 
	C347.159393,366.273163 350.365723,362.843170 354.200745,359.269592 
	C356.081116,358.948547 357.332794,358.771149 358.584473,358.593719 
	C358.279327,357.353973 357.974182,356.114197 357.669067,354.874420 
	C359.102722,352.824127 360.536407,350.773804 362.480957,348.946594 
	C363.720795,349.253662 364.449707,349.337677 365.178619,349.421661 
	C365.215332,349.104523 365.252045,348.787415 365.288757,348.470276 
	C364.413208,348.378265 363.537628,348.286255 362.662048,348.194244 
	C368.842804,335.826660 375.171234,323.529419 381.113342,311.048248 
	C382.872162,307.354004 383.234711,303.010437 384.846680,299.223969 
	C385.600891,297.452301 387.594971,295.438751 389.385315,295.001373 
	C402.114349,291.892029 414.920166,289.087799 427.736115,286.348206 
	C432.842468,285.256653 435.795227,287.137085 435.795319,291.651215 
	C435.795898,323.465790 436.579498,355.318970 435.264648,387.083313 
	C434.112335,414.921539 414.042816,437.159058 386.911865,443.640808 
	C381.952881,444.825500 376.694519,445.165558 371.571320,445.187531 
	C340.583740,445.320374 309.595245,445.255798 278.607056,445.236389 
	C272.726440,445.232697 271.291901,443.021667 272.418091,437.044769 
	C274.012878,428.580963 275.638977,420.086823 276.469482,411.529724 
	C276.919861,406.889404 279.277771,405.121460 283.086365,404.169983 
	C297.275391,400.625153 310.238922,394.370117 322.413818,386.395966 
	C325.885345,384.122162 329.196838,381.604034 333.103516,379.568237 
	C335.148682,380.172119 336.672028,380.405731 338.195374,380.639343 
	C338.366974,378.536896 338.538574,376.434448 338.710144,374.332001 
M353.470459,408.912140 
	C355.632660,408.902466 357.797028,408.952698 359.956696,408.873810 
	C381.247192,408.096313 396.551422,391.203949 396.336121,372.784393 
	C396.244781,364.971008 396.513214,357.153595 396.599945,349.337830 
	C396.629883,346.640167 396.604706,343.941864 396.604706,341.243866 
	C381.376495,368.990601 360.570618,390.884155 334.125580,407.716339 
	C334.482147,408.113831 334.838715,408.511322 335.195251,408.908813 
	C340.957001,408.908813 346.718719,408.908813 353.470459,408.912140 
M333.515900,383.418640 
	C333.515900,383.418640 333.575684,383.521423 333.515900,383.418640 
z"/>
<path fill="#F9F9EE" opacity="1.000000" stroke="none" 
	d="
M262.340759,208.738892 
	C264.317657,206.501526 266.294556,204.264145 268.803986,202.216064 
	C271.055145,202.516968 272.773743,202.628555 274.492371,202.740143 
	C273.942047,201.032501 273.391724,199.324844 272.841370,197.617188 
	C275.940430,194.128021 279.039490,190.638870 282.803772,187.009277 
	C283.975128,186.164230 284.481201,185.459641 284.987305,184.755035 
	C285.221588,184.373459 285.455902,183.991867 286.288086,183.642609 
	C289.584564,182.286301 292.153931,180.461090 295.013031,179.614929 
	C298.958679,178.447205 301.779205,176.692322 302.123627,172.270416 
	C303.753662,171.599823 305.383698,170.929214 307.476746,170.555634 
	C308.637085,170.449951 309.334381,170.047211 310.031677,169.644470 
	C311.086029,169.389969 312.140411,169.135468 313.871643,169.229858 
	C318.777527,169.943024 323.034607,170.199524 325.203247,174.865051 
	C325.290558,175.052826 327.236969,174.376465 328.317169,174.102722 
	C333.337250,181.868332 331.193207,189.550446 327.920227,197.144592 
	C327.081848,199.089783 325.706329,200.803467 323.887939,202.813721 
	C317.622894,203.152603 315.182129,206.576569 314.523071,211.823135 
	C312.689972,211.732483 311.151062,211.656372 308.763245,211.538300 
	C310.464508,213.490463 311.687622,214.893951 312.910736,216.297455 
	C303.755920,225.715530 294.590393,235.123245 285.448334,244.553680 
	C262.743622,267.974487 240.428070,291.789917 217.195435,314.674500 
	C205.148529,326.540863 191.508591,336.793976 178.520630,347.695221 
	C177.115845,348.874298 175.259659,349.515533 172.991211,350.742493 
	C174.623260,342.298309 176.079498,334.763855 177.723358,326.258606 
	C170.435867,329.620544 163.946762,332.614166 157.457642,335.607788 
	C156.968948,335.254150 156.480255,334.900513 155.991562,334.546875 
	C159.805817,327.167572 162.553970,318.933899 167.646576,312.579010 
	C179.896759,297.292480 193.245590,282.886353 206.787659,268.145447 
	C211.429062,269.488403 209.457642,266.259613 209.921982,264.885773 
	C209.921982,264.885773 209.897797,264.974213 210.262466,264.977600 
	C218.674881,262.403320 223.203537,256.064728 227.255188,249.274017 
	C227.585251,248.720825 227.101837,247.682297 226.996429,246.869293 
	C227.567520,246.336075 228.138626,245.802872 229.330505,245.153351 
	C230.860535,245.093002 231.769791,245.148956 232.955521,245.221924 
	C232.955521,243.313629 232.955521,241.599625 232.955521,239.885620 
	C233.667908,238.971573 234.380295,238.057541 235.639420,236.946381 
	C236.442276,236.467087 236.698395,236.184891 236.954514,235.902710 
	C236.954514,235.902710 236.921631,235.973007 237.272949,235.979828 
	C238.753738,234.388809 239.883209,232.790985 241.012695,231.193146 
	C241.090240,231.023941 241.167786,230.854721 241.625366,230.888412 
	C243.049957,231.461182 244.094482,231.831039 246.094467,232.539215 
	C245.024002,230.235916 244.512466,229.135284 244.000946,228.034637 
	C244.000946,228.034637 243.993210,227.994308 244.395447,228.012390 
	C249.900482,229.914932 252.386459,226.768341 254.564056,222.990875 
	C253.512405,222.234955 252.493057,221.502258 251.473724,220.769547 
	C251.818985,220.268250 252.164261,219.766953 253.109131,219.320251 
	C255.493484,219.987778 257.278229,220.600693 260.230408,221.614548 
	C258.638702,218.404541 257.786743,216.686417 256.934784,214.968292 
	C257.304230,214.343506 257.673676,213.718735 258.704651,213.005096 
	C263.561523,212.466492 264.077667,211.741669 262.340759,208.738892 
M310.423340,193.264404 
	C310.844910,195.184235 311.266479,197.104065 311.800079,199.534119 
	C311.515961,199.922928 310.787079,200.920380 310.058167,201.917831 
	C310.240906,202.137863 310.423676,202.357895 310.606415,202.577911 
	C312.051422,201.781784 313.496460,200.985657 315.644806,200.231323 
	C316.646179,198.475891 317.647552,196.720444 319.426697,194.921310 
	C322.976776,192.280060 322.670349,190.988205 317.821747,188.312225 
	C317.715637,187.998779 317.698578,187.680557 318.817871,187.341858 
	C318.793671,186.458511 318.769470,185.575150 318.745270,184.691788 
	C318.099915,185.111374 317.454559,185.530975 316.239594,185.574356 
	C315.121368,184.480179 314.003143,183.386017 312.935425,181.538300 
	C312.532196,180.766312 312.128937,179.994324 311.725708,179.222336 
	C311.149231,179.833694 310.572784,180.445068 309.113953,181.161163 
	C306.521637,181.364502 303.855530,181.268219 301.364288,181.881882 
	C299.833984,182.258850 297.561920,183.386124 300.003265,186.320023 
	C299.999725,186.544250 299.996185,186.768463 299.526581,187.024323 
	C299.260345,187.140152 298.994080,187.255981 298.727844,187.371811 
	C298.811981,187.491409 298.896149,187.611008 298.980316,187.730591 
	C299.321747,187.489273 299.663147,187.247971 300.550598,187.416641 
	C303.863220,188.974747 307.175842,190.532852 310.748230,192.264786 
	C310.748230,192.264786 310.850952,192.559998 310.423340,193.264404 
M243.707306,237.101974 
	C243.519669,236.573349 243.332047,236.044739 243.144424,235.516129 
	C242.872299,235.639435 242.600159,235.762756 242.328018,235.886063 
	C242.645813,236.430267 242.963608,236.974472 243.707306,237.101974 
M288.373840,187.652313 
	C287.812866,187.858871 287.251892,188.065430 286.690918,188.271988 
	C286.795349,188.498917 286.899811,188.725845 287.004242,188.952774 
	C287.556366,188.648926 288.108459,188.345093 288.373840,187.652313 
M237.271912,239.999695 
	C237.014023,239.841019 236.756149,239.682343 236.498260,239.523666 
	C236.659317,239.780685 236.820374,240.037704 237.271912,239.999695 
M294.599365,182.628311 
	C294.687164,182.974091 294.774994,183.319855 294.862823,183.665619 
	C294.909851,183.352753 294.956879,183.039902 294.599365,182.628311 
M321.413025,200.483841 
	C321.413025,200.483841 321.521423,200.420090 321.413025,200.483841 
z"/>
<path fill="#F5F6EC" opacity="1.000000" stroke="none" 
	d="
M392.987366,254.097565 
	C393.740143,254.112091 394.492950,254.126633 395.636292,254.552643 
	C396.684509,254.992050 397.342194,255.019974 397.999847,255.047882 
	C398.743622,255.078613 399.487427,255.109344 400.650970,255.538162 
	C402.042480,255.987045 403.014252,256.037842 403.985992,256.088623 
	C404.739044,256.083435 405.492065,256.078217 406.634460,256.482910 
	C407.687775,256.923126 408.351746,256.953430 409.015686,256.983765 
	C413.732208,257.694763 418.448700,258.405731 423.588531,259.548248 
	C424.669220,260.024017 425.326569,260.068207 425.983948,260.112396 
	C426.437134,260.134430 426.890320,260.156464 427.689972,260.606201 
	C428.689087,261.053192 429.341705,261.072510 429.994354,261.091827 
	C430.748077,261.089691 431.501831,261.087555 432.572388,261.518494 
	C432.917603,262.295959 432.945953,262.640350 432.974335,262.984741 
	C402.001434,269.021515 371.019531,275.012909 340.071503,281.174561 
	C337.370026,281.712402 335.839508,281.191315 334.188965,279.079712 
	C329.705383,273.343536 324.991211,267.787628 320.218842,261.978119 
	C325.440033,256.249451 330.287354,250.845856 335.267639,245.567780 
	C335.936981,244.858383 337.276825,244.781677 338.685120,244.827026 
	C339.691589,245.239838 340.319122,245.237595 340.946625,245.235367 
	C343.676849,245.576172 346.407043,245.916962 349.586212,246.644379 
	C350.684601,247.057922 351.334045,247.084824 351.983490,247.111710 
	C353.050720,247.180710 354.117920,247.249710 355.612915,247.714539 
	C356.682343,248.128784 357.324005,248.147217 357.965637,248.165634 
	C361.036987,248.540237 364.108337,248.914841 367.616699,249.739288 
	C368.691650,250.182373 369.329529,250.175613 369.967438,250.168823 
	C373.029449,250.506348 376.091461,250.843872 379.588989,251.597351 
	C380.676788,252.045532 381.329010,252.077759 381.981262,252.109985 
	C382.734436,252.149338 383.487640,252.188690 384.635101,252.637024 
	C385.683716,253.058609 386.338074,253.071182 386.992401,253.083771 
	C388.060730,253.128296 389.129059,253.172806 390.613800,253.633606 
	C391.682587,254.065781 392.334991,254.081680 392.987366,254.097565 
z"/>
<path fill="#F5F6ED" opacity="1.000000" stroke="none" 
	d="
M260.204163,142.080780 
	C260.407532,143.458755 260.610901,144.836746 260.588654,146.798096 
	C260.606537,147.933945 260.850006,148.486450 261.093475,149.038940 
	C261.367157,150.783127 261.640808,152.527313 261.678589,154.815063 
	C261.690521,155.928345 261.938354,156.498062 262.186188,157.067780 
	C262.446655,158.485626 262.707123,159.903488 262.692749,161.837296 
	C262.658447,162.916595 262.899017,163.479935 263.139557,164.043274 
	C262.396820,166.564194 262.329102,169.653564 260.778870,171.494522 
	C256.855408,176.153824 252.266098,180.252472 246.918533,185.600845 
	C242.881210,181.092850 239.158356,176.653275 235.122803,172.518951 
	C231.865250,169.181686 231.516632,165.425659 232.149887,161.124893 
	C235.713425,136.923035 239.162338,112.704308 242.689758,88.497070 
	C243.548920,82.600983 244.556030,76.726463 245.903641,70.292763 
	C247.124374,68.850365 247.936600,67.957230 248.748825,67.064087 
	C248.824600,67.495720 248.900360,67.927345 248.723663,68.836868 
	C248.812729,69.902748 249.154282,70.490738 249.495819,71.078735 
	C249.622177,71.813736 249.748535,72.548737 249.651001,73.809608 
	C249.762039,74.915794 250.096954,75.496101 250.431885,76.076408 
	C251.250351,80.787201 252.068817,85.498001 252.649323,90.759476 
	C252.714691,91.900742 253.018021,92.491333 253.321335,93.081924 
	C253.533966,94.448433 253.746613,95.814941 253.720337,97.732803 
	C253.765884,98.883110 254.050339,99.482056 254.334793,100.081009 
	C254.498032,101.138222 254.661255,102.195435 254.569794,103.834732 
	C254.679718,105.304718 255.044312,106.192619 255.408905,107.080521 
	C255.581284,108.450371 255.753662,109.820213 255.691757,111.730759 
	C255.721252,112.874298 255.985016,113.477142 256.248779,114.079994 
	C256.801392,117.772148 257.354004,121.464302 257.685944,125.721024 
	C257.760071,126.884308 258.054901,127.483002 258.349731,128.081696 
	C258.529602,129.450516 258.709503,130.819321 258.679596,132.731506 
	C258.719421,133.876297 258.969025,134.477737 259.218658,135.079178 
	C259.414673,136.456406 259.610687,137.833633 259.596924,139.754608 
	C259.659485,140.892502 259.931824,141.486633 260.204163,142.080780 
z"/>
<path fill="#F7F7EE" opacity="1.000000" stroke="none" 
	d="
M263.440491,355.643250 
	C263.100922,358.783722 262.761383,361.924194 262.143616,365.666687 
	C261.883270,366.448181 261.901154,366.627625 261.919037,366.807068 
	C261.745911,368.579651 261.572784,370.352234 261.123596,372.692566 
	C260.847565,373.260345 260.898926,373.756592 260.898926,373.756592 
	C259.730530,381.315979 258.562134,388.875366 257.111938,396.890228 
	C256.830139,397.345703 256.885590,397.665131 256.885590,397.665131 
	C256.809723,398.808990 256.733887,399.952820 256.261780,401.561646 
	C255.837555,402.671082 255.809570,403.315521 255.781616,403.959991 
	C255.119659,408.676483 254.457718,413.392944 253.407532,418.545624 
	C252.934158,419.640533 252.849045,420.299255 252.763947,420.957977 
	C251.904205,425.411652 251.044464,429.865326 249.709106,434.757721 
	C247.780945,434.798248 246.328384,434.400055 244.875809,434.001892 
	C242.235489,419.601471 239.514603,405.215240 236.980072,390.796234 
	C234.917618,379.062988 233.090668,367.288513 231.132309,355.536804 
	C230.582718,352.238739 231.123611,349.578827 233.815536,347.082336 
	C238.434204,342.799042 242.620514,338.049500 247.691010,332.763153 
	C253.529755,339.297913 258.872284,345.277313 263.855682,351.903931 
	C263.477844,353.581818 263.459167,354.612518 263.440491,355.643250 
z"/>
<path fill="#FDFBEF" opacity="1.000000" stroke="none" 
	d="
M113.017395,272.894653 
	C110.937721,272.618530 108.858040,272.342407 106.361938,271.661194 
	C105.282478,271.200012 104.619453,271.143951 103.956421,271.087891 
	C101.896080,270.762268 99.835747,270.436615 97.351685,269.641846 
	C94.958344,263.892212 91.747993,267.493073 88.961502,268.059814 
	C88.219780,268.055206 87.478058,268.050598 86.344009,267.638245 
	C85.287155,267.179474 84.622620,267.128448 83.958084,267.077423 
	C83.213448,267.097931 82.468811,267.118439 81.339630,266.716064 
	C80.291466,266.218658 79.627846,266.144104 78.964226,266.069580 
	C76.233444,265.711914 73.502655,265.354218 70.423775,264.460968 
	C70.718155,263.282043 71.360634,262.638641 72.125061,262.191040 
	C72.579254,262.375092 72.911491,262.363373 73.243736,262.351685 
	C72.827431,262.236084 72.411125,262.120514 71.854477,261.697113 
	C71.426956,260.777374 71.139771,260.165436 70.852585,259.553528 
	C72.005699,259.347992 73.158813,259.142426 74.810936,259.295227 
	C79.317802,264.152557 80.640297,258.861664 83.049019,257.530762 
	C84.098923,257.342316 85.148827,257.153839 86.795387,257.254486 
	C88.274239,257.117798 89.156433,256.692017 90.038628,256.266235 
	C90.772835,256.152618 91.507042,256.039001 92.848846,256.228790 
	C95.983231,255.799072 98.510010,255.065964 101.036797,254.332855 
	C101.774048,254.211670 102.511299,254.090485 103.770363,254.224884 
	C104.875587,254.120804 105.459000,253.761108 106.042412,253.401428 
	C106.785271,253.285309 107.528130,253.169189 108.837975,253.317215 
	C110.285065,253.185165 111.165176,252.789001 112.045280,252.392822 
	C112.474373,252.255386 112.903458,252.117935 113.921364,252.287750 
	C117.022667,251.930939 119.535149,251.266861 122.047623,250.602783 
	C123.109138,250.416779 124.170639,250.230774 125.818916,250.329941 
	C127.285248,250.215866 128.164810,249.816589 129.044373,249.417328 
	C129.790237,249.292053 130.536087,249.166794 131.870056,249.333740 
	C137.377533,248.876923 143.047729,251.714584 147.047409,246.571991 
	C148.097900,246.381561 149.148392,246.191132 150.807266,246.293365 
	C154.946365,246.721344 158.477051,246.856644 162.007751,246.991943 
	C162.007751,246.991943 162.000000,247.000000 161.988708,247.379730 
	C162.405411,252.725006 165.914993,254.662827 170.055222,255.981018 
	C170.530685,256.368469 171.006165,256.755890 171.264893,257.571899 
	C172.249817,263.266632 168.932968,266.452942 165.913193,269.985443 
	C164.936707,271.127777 165.326538,273.438049 165.091370,275.214081 
	C162.959106,277.392120 160.826874,279.570190 158.302444,281.355469 
	C156.953079,280.912750 155.995880,280.862854 155.038696,280.812958 
	C154.280884,280.793701 153.523071,280.774445 152.355316,280.375214 
	C151.302353,279.962341 150.659317,279.929443 150.016281,279.896545 
	C149.261475,279.884186 148.506653,279.871826 147.351685,279.465637 
	C146.300797,279.034485 145.650055,278.997101 144.999329,278.959717 
	C143.928360,278.904327 142.857376,278.848907 141.367157,278.380127 
	C140.309143,277.927795 139.670395,277.888763 139.031631,277.849731 
	C138.270950,277.843506 137.510254,277.837219 136.304031,277.369873 
	C130.227646,274.000427 124.259331,273.109131 118.005913,273.921906 
	C117.249199,273.911530 116.492493,273.901184 115.347565,273.471436 
	C114.312042,272.999573 113.664719,272.947113 113.017395,272.894653 
M161.523148,274.015472 
	C161.255295,274.136780 160.987442,274.258087 160.719589,274.379395 
	C160.805847,274.500397 160.892105,274.621368 160.978348,274.742340 
	C161.320557,274.496185 161.662766,274.250031 162.269318,273.894104 
	C162.178192,273.927795 162.087082,273.961456 161.523148,274.015472 
M98.161850,257.736267 
	C98.111107,257.582184 98.060364,257.428070 98.009613,257.273987 
	C97.959457,257.428864 97.909302,257.583710 98.161850,257.736267 
z"/>
<path fill="#F2F3EC" opacity="1.000000" stroke="none" 
	d="
M173.514404,206.508652 
	C189.488937,219.204910 205.170334,231.698105 221.210892,244.477463 
	C216.461884,249.544891 212.203140,254.089203 207.936111,258.642334 
	C187.468674,240.112122 167.451950,221.989960 147.198868,203.653809 
	C150.426697,200.267807 153.373611,197.176483 156.689926,193.697647 
	C162.226852,197.920486 167.724075,202.113037 173.514404,206.508652 
z"/>
<path fill="#F1F2EB" opacity="1.000000" stroke="none" 
	d="
M272.289001,299.701416 
	C283.781769,315.412964 295.042145,330.851654 306.726654,346.871796 
	C302.800659,350.035980 299.199097,352.938690 295.151550,356.200836 
	C290.780426,350.845642 285.589325,344.475739 280.387238,338.114807 
	C269.346039,324.613953 258.382965,311.047516 247.176956,297.684784 
	C245.169846,295.291351 245.331543,293.897217 247.293121,291.874146 
	C250.638290,288.424072 253.818680,284.814240 257.625488,280.664093 
	C262.853333,287.461761 267.454987,293.445190 272.289001,299.701416 
z"/>
<path fill="#EFF1EA" opacity="1.000000" stroke="none" 
	d="
M304.719482,307.301422 
	C296.577545,290.550964 288.584229,274.143341 280.424164,257.393372 
	C284.027008,254.230667 287.490295,251.190460 291.227448,247.909836 
	C294.486176,254.663055 298.072754,261.910492 301.498962,269.232941 
	C309.734985,286.834717 317.994995,304.426453 326.053162,322.109772 
	C331.730560,334.568573 331.411713,331.836823 321.639282,341.535339 
	C315.959045,330.056793 310.413544,318.850494 304.719482,307.301422 
z"/>
<path fill="#F0F2EC" opacity="1.000000" stroke="none" 
	d="
M183.066299,172.999054 
	C205.990250,185.572922 228.581711,197.995682 251.163681,210.435654 
	C251.420685,210.577240 251.554352,210.942703 251.982010,211.526276 
	C249.154160,214.793701 246.367233,218.225922 243.295441,221.380737 
	C242.695038,221.997360 240.703568,222.019882 239.835663,221.504593 
	C217.256699,208.099472 194.740479,194.588623 172.223801,181.078751 
	C171.829956,180.842422 171.563049,180.394531 171.254318,180.063995 
	C176.912689,171.464813 178.440704,170.511566 183.066299,172.999054 
z"/>
<path fill="#F3F5EB" opacity="1.000000" stroke="none" 
	d="
M4.788255,267.929749 
	C2.566749,255.831512 8.396245,246.842941 19.638117,244.506104 
	C28.506792,242.662567 38.224342,250.219070 40.224026,260.514008 
	C41.704651,268.136688 37.298107,276.398743 29.997084,279.689148 
	C22.241268,283.184509 12.906623,281.040253 8.086792,274.456970 
	C6.739199,272.616333 5.927375,270.383453 4.788255,267.929749 
z"/>
<path fill="#F4F5EB" opacity="1.000000" stroke="none" 
	d="
M471.324677,281.489258 
	C457.248688,278.043304 450.697083,266.470398 456.011597,255.055054 
	C459.346924,247.890823 468.106567,243.047699 475.109131,244.496155 
	C483.766449,246.286865 490.109283,253.441223 490.797089,262.191254 
	C491.383209,269.647461 485.501160,278.157990 478.018707,280.439453 
	C475.991486,281.057556 473.819366,281.200409 471.324677,281.489258 
z"/>
<path fill="#F4F5EC" opacity="1.000000" stroke="none" 
	d="
M258.787842,9.138723 
	C270.542938,17.568953 266.977570,37.190769 253.015060,41.261879 
	C243.849869,43.934223 233.121140,38.497864 230.335114,29.347681 
	C227.299561,19.377979 232.467163,9.162951 242.021103,6.163032 
	C247.996613,4.286726 253.457809,5.285998 258.787842,9.138723 
z"/>
<path fill="#F4F5EC" opacity="1.000000" stroke="none" 
	d="
M260.203125,493.268066 
	C253.466797,498.844238 246.448547,499.498810 239.177979,495.539764 
	C232.632065,491.975281 229.489883,486.227692 229.744156,478.757019 
	C230.018539,470.695404 234.468658,465.589355 241.610535,462.537170 
	C248.341187,459.660736 256.636444,462.006744 261.766510,468.158081 
	C267.049988,474.493317 267.452911,483.495300 262.719879,490.358093 
	C262.063812,491.309357 261.228760,492.137207 260.203125,493.268066 
z"/>
<path fill="#EFF1EA" opacity="1.000000" stroke="none" 
	d="
M226.646393,246.872498 
	C227.101837,247.682297 227.585251,248.720825 227.255188,249.274017 
	C223.203537,256.064728 218.674881,262.403320 210.245331,264.935059 
	C215.341125,258.884674 220.818726,252.880203 226.646393,246.872498 
z"/>
<path fill="#E6EAE7" opacity="1.000000" stroke="none" 
	d="
M165.407501,275.084595 
	C165.326538,273.438049 164.936707,271.127777 165.913193,269.985443 
	C168.932968,266.452942 172.249817,263.266632 171.376205,257.865051 
	C173.120377,259.252655 174.536469,260.775696 176.330505,262.705200 
	C172.697708,266.900726 169.210678,270.927887 165.407501,275.084595 
z"/>
<path fill="#EFF1EA" opacity="1.000000" stroke="none" 
	d="
M313.181946,216.164825 
	C311.687622,214.893951 310.464508,213.490463 308.763245,211.538300 
	C311.151062,211.656372 312.689972,211.732483 314.523071,211.823135 
	C315.182129,206.576569 317.622894,203.152603 323.589142,202.998413 
	C320.471069,207.339325 316.962128,211.685760 313.181946,216.164825 
z"/>
<path fill="#EFF1EA" opacity="1.000000" stroke="none" 
	d="
M301.820496,172.269928 
	C301.779205,176.692322 298.958679,178.447205 295.013031,179.614929 
	C292.153931,180.461090 289.584564,182.286301 286.497437,183.545639 
	C291.245056,179.700729 296.381195,175.985092 301.820496,172.269928 
z"/>
<path fill="#EFF1EA" opacity="1.000000" stroke="none" 
	d="
M251.187286,220.908539 
	C252.493057,221.502258 253.512405,222.234955 254.564056,222.990875 
	C252.386459,226.768341 249.900482,229.914932 244.415833,228.014771 
	C246.322968,225.681900 248.611923,223.364716 251.187286,220.908539 
z"/>
<path fill="#EFF1EA" opacity="1.000000" stroke="none" 
	d="
M328.243439,173.794525 
	C327.236969,174.376465 325.290558,175.052826 325.203247,174.865051 
	C323.034607,170.199524 318.777527,169.943024 314.275818,169.302826 
	C319.542389,167.917740 324.491089,168.684723 328.243439,173.794525 
z"/>
<path fill="#E6EAE7" opacity="1.000000" stroke="none" 
	d="
M72.003113,261.995270 
	C71.360634,262.638641 70.718155,263.282043 70.064575,264.244995 
	C66.893166,263.892792 63.732857,263.221069 60.572544,262.549347 
	C60.628258,262.171234 60.683968,261.793091 60.739677,261.414978 
	C63.832581,260.804840 66.925484,260.194733 70.435486,259.569092 
	C71.139771,260.165436 71.426956,260.777374 71.857025,261.694641 
	C71.999908,262.000000 72.003120,261.995270 72.003113,261.995270 
z"/>
<path fill="#E6EAE7" opacity="1.000000" stroke="none" 
	d="
M118.319443,274.146790 
	C124.259331,273.109131 130.227646,274.000427 135.952942,277.218079 
	C130.242584,276.475433 124.437782,275.423553 118.319443,274.146790 
z"/>
<path fill="#E6EAE7" opacity="1.000000" stroke="none" 
	d="
M146.650574,246.483948 
	C143.047729,251.714584 137.377533,248.876923 132.247772,249.388641 
	C136.776169,248.232849 141.514954,247.314392 146.650574,246.483948 
z"/>
<path fill="#EDF0EA" opacity="1.000000" stroke="none" 
	d="
M343.702332,369.768799 
	C347.670441,372.845032 347.492828,373.500458 341.729095,376.719971 
	C341.410217,375.640656 341.117828,374.650970 340.774811,373.239990 
	C341.633362,371.823975 342.542511,370.829193 343.702332,369.768799 
z"/>
<path fill="#E6EAE7" opacity="1.000000" stroke="none" 
	d="
M169.956116,255.657562 
	C165.914993,254.662827 162.405411,252.725006 161.992767,247.375946 
	C164.624405,249.772995 167.240707,252.553558 169.956116,255.657562 
z"/>
<path fill="#E6EAE7" opacity="1.000000" stroke="none" 
	d="
M161.903442,246.651215 
	C158.477051,246.856644 154.946365,246.721344 151.209320,246.319550 
	C154.617615,245.471909 158.294891,242.263702 161.903442,246.651215 
z"/>
<path fill="#EDF0EA" opacity="1.000000" stroke="none" 
	d="
M338.380737,374.454651 
	C338.538574,376.434448 338.366974,378.536896 338.195374,380.639343 
	C336.672028,380.405731 335.148682,380.172119 333.485840,379.482788 
	C334.914673,377.543823 336.483002,376.060547 338.380737,374.454651 
z"/>
<path fill="#EFF1EA" opacity="1.000000" stroke="none" 
	d="
M272.541290,197.747223 
	C273.391724,199.324844 273.942047,201.032501 274.492371,202.740143 
	C272.773743,202.628555 271.055145,202.516968 269.130066,202.117538 
	C270.029480,200.512222 271.135345,199.194748 272.541290,197.747223 
z"/>
<path fill="#EFF1EA" opacity="1.000000" stroke="none" 
	d="
M256.630859,215.071167 
	C257.786743,216.686417 258.638702,218.404541 260.230408,221.614548 
	C257.278229,220.600693 255.493484,219.987778 253.395050,219.205383 
	C254.163223,217.748611 255.245087,216.461319 256.630859,215.071167 
z"/>
<path fill="#DDE0E3" opacity="1.000000" stroke="none" 
	d="
M244.830292,434.416595 
	C246.328384,434.400055 247.780945,434.798248 249.503098,435.095917 
	C249.746796,435.879944 249.720901,436.764465 249.030518,437.917053 
	C247.797684,439.352142 247.229355,440.519196 246.661011,441.686279 
	C246.035614,439.401306 245.410202,437.116302 244.830292,434.416595 
z"/>
<path fill="#E6EAE7" opacity="1.000000" stroke="none" 
	d="
M89.240440,268.309906 
	C91.747993,267.493073 94.958344,263.892212 96.979843,269.518555 
	C94.527603,269.429596 92.023491,268.994781 89.240440,268.309906 
z"/>
<path fill="#E6EAE7" opacity="1.000000" stroke="none" 
	d="
M82.670319,257.496765 
	C80.640297,258.861664 79.317802,264.152557 75.163635,259.363708 
	C77.442093,258.536835 79.866859,257.999786 82.670319,257.496765 
z"/>
<path fill="#D1D7DA" opacity="1.000000" stroke="none" 
	d="
M248.843994,66.723129 
	C247.936600,67.957230 247.124374,68.850365 246.035934,69.922577 
	C246.077667,67.653801 246.395615,65.205940 246.713562,62.758083 
	C247.059845,62.729256 247.406128,62.700428 247.752396,62.671600 
	C248.147995,63.908455 248.543594,65.145309 248.843994,66.723129 
z"/>
<path fill="#EFF1EA" opacity="1.000000" stroke="none" 
	d="
M262.077911,208.899017 
	C264.077667,211.741669 263.561523,212.466492 258.950745,212.876389 
	C259.628571,211.577393 260.721832,210.318268 262.077911,208.899017 
z"/>
<path fill="#ECEDE6" opacity="1.000000" stroke="none" 
	d="
M357.379822,354.988220 
	C357.974182,356.114197 358.279327,357.353973 358.584473,358.593719 
	C357.332794,358.771149 356.081116,358.948547 354.482727,359.085815 
	C355.120880,357.731110 356.105743,356.416565 357.379822,354.988220 
z"/>
<path fill="#E6EAE7" opacity="1.000000" stroke="none" 
	d="
M121.675446,250.512085 
	C119.535149,251.266861 117.022667,251.930939 114.259384,252.334900 
	C116.440140,251.523636 118.871704,250.972519 121.675446,250.512085 
z"/>
<path fill="#EFF1EA" opacity="1.000000" stroke="none" 
	d="
M232.658875,240.028198 
	C232.955521,241.599625 232.955521,243.313629 232.955521,245.221924 
	C231.769791,245.148956 230.860535,245.093002 229.605591,245.027344 
	C230.294022,243.402008 231.328125,241.786392 232.658875,240.028198 
z"/>
<path fill="#E6EAE7" opacity="1.000000" stroke="none" 
	d="
M100.653732,254.266937 
	C98.510010,255.065964 95.983231,255.799072 93.220970,256.267456 
	C95.413887,255.402176 97.842285,254.801605 100.653732,254.266937 
z"/>
<path fill="#E9EDE7" opacity="1.000000" stroke="none" 
	d="
M79.637451,73.003616 
	C80.355698,74.259827 80.746986,75.606422 81.363808,77.729164 
	C79.376350,77.322617 78.197411,77.081451 76.626534,76.732864 
	C77.259903,75.448288 78.285202,74.271141 79.637451,73.003616 
z"/>
<path fill="#EFF1EA" opacity="1.000000" stroke="none" 
	d="
M243.728638,228.125336 
	C244.512466,229.135284 245.024002,230.235916 246.094467,232.539215 
	C244.094482,231.831039 243.049957,231.461182 241.882080,230.778625 
	C242.324615,229.715958 242.890472,228.966003 243.728638,228.125336 
z"/>
<path fill="#E9EDE7" opacity="1.000000" stroke="none" 
	d="
M69.485382,84.649780 
	C71.406700,87.101242 70.249985,88.367569 67.279617,88.949905 
	C67.674454,87.584190 68.427635,86.196823 69.485382,84.649780 
z"/>
<path fill="#EFF1EA" opacity="1.000000" stroke="none" 
	d="
M240.718521,231.315277 
	C239.883209,232.790985 238.753738,234.388809 237.251862,235.947266 
	C238.061081,234.417725 239.242722,232.927567 240.718521,231.315277 
z"/>
<path fill="#E9EDE7" opacity="1.000000" stroke="none" 
	d="
M75.696289,77.072998 
	C75.138222,78.269699 74.270676,79.588409 72.994583,80.875046 
	C73.519630,79.626984 74.453217,78.410995 75.696289,77.072998 
z"/>
<path fill="#EFF1EA" opacity="1.000000" stroke="none" 
	d="
M209.588654,264.861511 
	C209.457642,266.259613 211.429062,269.488403 207.096558,268.028320 
	C207.597794,266.872955 208.426559,265.855133 209.588654,264.861511 
z"/>
<path fill="#F7F7EE" opacity="1.000000" stroke="none" 
	d="
M246.634308,441.790558 
	C247.229355,440.519196 247.797684,439.352142 248.772461,438.132141 
	C249.001755,439.244476 248.824600,440.409760 248.047791,441.793945 
	C247.223495,442.018951 246.998886,442.025055 246.774261,442.031128 
	C246.774261,442.031128 246.607590,441.894836 246.634308,441.790558 
z"/>
<path fill="#D1D7DA" opacity="1.000000" stroke="none" 
	d="
M255.526062,106.771500 
	C255.044312,106.192619 254.679718,105.304718 254.531296,104.237877 
	C255.046066,104.860115 255.344650,105.661301 255.526062,106.771500 
z"/>
<path fill="#E6EAE7" opacity="1.000000" stroke="none" 
	d="
M155.285767,281.027039 
	C155.995880,280.862854 156.953079,280.912750 157.979736,281.245392 
	C157.210419,281.432465 156.371628,281.336792 155.285767,281.027039 
z"/>
<path fill="#D5DED8" opacity="1.000000" stroke="none" 
	d="
M403.720154,255.897827 
	C403.014252,256.037842 402.042480,255.987045 401.009399,255.642456 
	C401.783508,255.468109 402.618927,255.587570 403.720154,255.897827 
z"/>
<path fill="#E6EAE7" opacity="1.000000" stroke="none" 
	d="
M128.728333,249.331116 
	C128.164810,249.816589 127.285248,250.215866 126.222023,250.384140 
	C126.829674,249.850403 127.620987,249.547653 128.728333,249.331116 
z"/>
<path fill="#EFF1EA" opacity="1.000000" stroke="none" 
	d="
M309.793549,169.519897 
	C309.334381,170.047211 308.637085,170.449951 307.827484,170.552429 
	C308.328552,169.966553 308.941986,169.680939 309.793549,169.519897 
z"/>
<path fill="#CCCFCE" opacity="1.000000" stroke="none" 
	d="
M263.648926,355.449280 
	C263.459167,354.612518 263.477844,353.581818 263.776489,352.262573 
	C263.990112,353.067810 263.923706,354.161560 263.648926,355.449280 
z"/>
<path fill="#ECEDE6" opacity="1.000000" stroke="none" 
	d="
M362.654297,348.225769 
	C363.537628,348.286255 364.413208,348.378265 365.288757,348.470276 
	C365.252045,348.787415 365.215332,349.104523 365.178619,349.421661 
	C364.449707,349.337677 363.720795,349.253662 362.805573,348.751251 
	C362.619263,348.332825 362.646515,348.257324 362.654297,348.225769 
z"/>
<path fill="#E6EAE7" opacity="1.000000" stroke="none" 
	d="
M111.729401,252.303635 
	C111.165176,252.789001 110.285065,253.185165 109.214935,253.353607 
	C109.821121,252.822067 110.617317,252.518265 111.729401,252.303635 
z"/>
<path fill="#E6EAE7" opacity="1.000000" stroke="none" 
	d="
M89.720848,256.177856 
	C89.156433,256.692017 88.274239,257.117798 87.198296,257.305786 
	C87.804054,256.741821 88.603561,256.415649 89.720848,256.177856 
z"/>
<path fill="#D5DED8" opacity="1.000000" stroke="none" 
	d="
M433.208923,263.071167 
	C432.945953,262.640350 432.917603,262.295959 432.909058,261.692688 
	C433.529327,261.814850 434.129761,262.195892 434.730225,262.576935 
	C434.301331,262.770477 433.872437,262.964020 433.208923,263.071167 
z"/>
<path fill="#E6EAE7" opacity="1.000000" stroke="none" 
	d="
M84.173553,267.276062 
	C84.622620,267.128448 85.287155,267.179474 85.994507,267.509338 
	C85.487892,267.683685 84.938454,267.579193 84.173553,267.276062 
z"/>
<path fill="#E6EAE7" opacity="1.000000" stroke="none" 
	d="
M79.167480,266.287476 
	C79.627846,266.144104 80.291466,266.218658 80.992737,266.576599 
	C80.477165,266.741791 79.923950,266.623596 79.167480,266.287476 
z"/>
<path fill="#E6EAE7" opacity="1.000000" stroke="none" 
	d="
M139.243530,278.038818 
	C139.670395,277.888763 140.309143,277.927795 140.999268,278.215149 
	C140.518890,278.384979 139.987167,278.306458 139.243530,278.038818 
z"/>
<path fill="#CCCFCE" opacity="1.000000" stroke="none" 
	d="
M252.968414,420.748962 
	C252.849045,420.299255 252.934158,419.640533 253.274231,418.944672 
	C253.410416,419.451660 253.291656,419.995789 252.968414,420.748962 
z"/>
<path fill="#E6EAE7" opacity="1.000000" stroke="none" 
	d="
M104.126434,271.340820 
	C104.619453,271.143951 105.282478,271.200012 105.985710,271.538391 
	C105.449417,271.745056 104.872932,271.669403 104.126434,271.340820 
z"/>
<path fill="#E6EAE7" opacity="1.000000" stroke="none" 
	d="
M113.234650,273.077942 
	C113.664719,272.947113 114.312042,272.999573 115.002640,273.309814 
	C114.514572,273.465454 113.983231,273.363342 113.234650,273.077942 
z"/>
<path fill="#CCCFCE" opacity="1.000000" stroke="none" 
	d="
M255.979034,403.747742 
	C255.809570,403.315521 255.837555,402.671082 256.099060,401.959747 
	C256.280518,402.440430 256.228485,402.987976 255.979034,403.747742 
z"/>
<path fill="#D1D7DA" opacity="1.000000" stroke="none" 
	d="
M249.548111,70.802185 
	C249.154282,70.490738 248.812729,69.902748 248.673584,69.164200 
	C249.117462,69.517639 249.358932,70.021637 249.548111,70.802185 
z"/>
<path fill="#E6EAE7" opacity="1.000000" stroke="none" 
	d="
M145.172440,279.198181 
	C145.650055,278.997101 146.300797,279.034485 146.996201,279.335205 
	C146.475769,279.544617 145.910660,279.490601 145.172440,279.198181 
z"/>
<path fill="#E6EAE7" opacity="1.000000" stroke="none" 
	d="
M150.220123,280.096771 
	C150.659317,279.929443 151.302353,279.962341 151.997177,280.246887 
	C151.507294,280.431366 150.965622,280.364166 150.220123,280.096771 
z"/>
<path fill="#D1D7DA" opacity="1.000000" stroke="none" 
	d="
M250.512268,75.803619 
	C250.096954,75.496101 249.762039,74.915794 249.622009,74.187027 
	C250.075470,74.535995 250.334045,75.033417 250.512268,75.803619 
z"/>
<path fill="#D5DED8" opacity="1.000000" stroke="none" 
	d="
M392.772888,253.913422 
	C392.334991,254.081680 391.682587,254.065781 390.980316,253.797974 
	C391.473083,253.607132 392.015778,253.668213 392.772888,253.913422 
z"/>
<path fill="#D1D7DA" opacity="1.000000" stroke="none" 
	d="
M256.372803,113.820915 
	C255.985016,113.477142 255.721252,112.874298 255.661926,112.147354 
	C256.076538,112.536118 256.286682,113.048973 256.372803,113.820915 
z"/>
<path fill="#D1D7DA" opacity="1.000000" stroke="none" 
	d="
M263.264221,163.855835 
	C262.899017,163.479935 262.658447,162.916595 262.633728,162.194031 
	C263.029327,162.579330 263.209106,163.123856 263.264221,163.855835 
z"/>
<path fill="#D1D7DA" opacity="1.000000" stroke="none" 
	d="
M261.213989,148.849243 
	C260.850006,148.486450 260.606537,147.933945 260.566986,147.219604 
	C260.958771,147.591675 261.146637,148.125610 261.213989,148.849243 
z"/>
<path fill="#EFF1EA" opacity="1.000000" stroke="none" 
	d="
M284.679108,184.859970 
	C284.481201,185.459641 283.975128,186.164230 283.107788,186.883636 
	C283.288025,186.253922 283.829468,185.609406 284.679108,184.859970 
z"/>
<path fill="#D1D7DA" opacity="1.000000" stroke="none" 
	d="
M260.314331,141.819885 
	C259.931824,141.486633 259.659485,140.892502 259.585052,140.174377 
	C259.996796,140.553253 260.210632,141.056107 260.314331,141.819885 
z"/>
<path fill="#D1D7DA" opacity="1.000000" stroke="none" 
	d="
M259.333740,134.819153 
	C258.969025,134.477737 258.719421,133.876297 258.666656,133.148819 
	C259.058624,133.534897 259.253723,134.046997 259.333740,134.819153 
z"/>
<path fill="#D1D7DA" opacity="1.000000" stroke="none" 
	d="
M258.459778,127.814713 
	C258.054901,127.483002 257.760071,126.884308 257.667084,126.153297 
	C258.102570,126.529900 258.336212,127.038811 258.459778,127.814713 
z"/>
<path fill="#D5DED8" opacity="1.000000" stroke="none" 
	d="
M340.749207,245.032867 
	C340.319122,245.237595 339.691589,245.239838 338.993774,245.013489 
	C339.466278,244.800034 340.009033,244.815186 340.749207,245.032867 
z"/>
<path fill="#D1D7DA" opacity="1.000000" stroke="none" 
	d="
M253.406860,92.813721 
	C253.018021,92.491333 252.714691,91.900742 252.612061,91.176620 
	C253.039291,91.543892 253.265839,92.044708 253.406860,92.813721 
z"/>
<path fill="#D5DED8" opacity="1.000000" stroke="none" 
	d="
M351.788452,246.895050 
	C351.334045,247.084824 350.684601,247.057922 349.983887,246.779694 
	C350.486237,246.578384 351.039825,246.628387 351.788452,246.895050 
z"/>
<path fill="#D5DED8" opacity="1.000000" stroke="none" 
	d="
M357.756470,247.967987 
	C357.324005,248.147217 356.682343,248.128784 355.984039,247.869049 
	C356.467346,247.675262 357.007294,247.722809 357.756470,247.967987 
z"/>
<path fill="#D1D7DA" opacity="1.000000" stroke="none" 
	d="
M254.437180,99.816528 
	C254.050339,99.482056 253.765884,98.883110 253.685165,98.151932 
	C254.105804,98.530487 254.322693,99.041267 254.437180,99.816528 
z"/>
<path fill="#D5DED8" opacity="1.000000" stroke="none" 
	d="
M397.796112,254.838470 
	C397.342194,255.019974 396.684509,254.992050 395.982971,254.705566 
	C396.490204,254.507675 397.041290,254.568359 397.796112,254.838470 
z"/>
<path fill="#D5DED8" opacity="1.000000" stroke="none" 
	d="
M429.773010,260.916046 
	C429.341705,261.072510 428.689087,261.053192 427.984009,260.784149 
	C428.471588,260.603027 429.011627,260.671661 429.773010,260.916046 
z"/>
<path fill="#D5DED8" opacity="1.000000" stroke="none" 
	d="
M425.756531,259.942627 
	C425.326569,260.068207 424.669220,260.024017 423.974121,259.721802 
	C424.467316,259.566803 424.998199,259.669830 425.756531,259.942627 
z"/>
<path fill="#D5DED8" opacity="1.000000" stroke="none" 
	d="
M408.821411,256.764648 
	C408.351746,256.953430 407.687775,256.923126 406.985229,256.624420 
	C407.506805,256.419220 408.066986,256.482391 408.821411,256.764648 
z"/>
<path fill="#D5DED8" opacity="1.000000" stroke="none" 
	d="
M369.752136,249.989090 
	C369.329529,250.175613 368.691650,250.182373 367.988403,249.954041 
	C368.460968,249.749069 368.998901,249.779205 369.752136,249.989090 
z"/>
<path fill="#D1D7DA" opacity="1.000000" stroke="none" 
	d="
M262.306213,156.871979 
	C261.938354,156.498062 261.690521,155.928345 261.655121,155.191833 
	C262.053772,155.575424 262.240021,156.125809 262.306213,156.871979 
z"/>
<path fill="#D5DED8" opacity="1.000000" stroke="none" 
	d="
M381.777252,251.907379 
	C381.329010,252.077759 380.676788,252.045532 379.979126,251.759232 
	C380.480194,251.571686 381.026733,251.638229 381.777252,251.907379 
z"/>
<path fill="#E6EAE7" opacity="1.000000" stroke="none" 
	d="
M105.759941,253.315689 
	C105.459000,253.761108 104.875587,254.120804 104.145752,254.261780 
	C104.492035,253.772049 104.984756,253.500992 105.759941,253.315689 
z"/>
<path fill="#D5DED8" opacity="1.000000" stroke="none" 
	d="
M386.790283,252.876160 
	C386.338074,253.071182 385.683716,253.058609 384.980377,252.793091 
	C385.483612,252.582977 386.035889,252.625763 386.790283,252.876160 
z"/>
<path fill="#CCCFCE" opacity="1.000000" stroke="none" 
	d="
M261.056915,373.718353 
	C260.898926,373.756592 260.847565,373.260345 260.977539,373.047119 
	C261.387482,373.057037 261.423279,373.339081 261.056915,373.718353 
z"/>
<path fill="#CCCFCE" opacity="1.000000" stroke="none" 
	d="
M257.032654,397.653381 
	C256.885590,397.665131 256.830139,397.345703 256.910217,397.305603 
	C256.990295,397.265472 257.265594,397.362091 257.265594,397.362091 
	C257.265594,397.362091 257.179688,397.641632 257.032654,397.653381 
z"/>
<path fill="#CCCFCE" opacity="1.000000" stroke="none" 
	d="
M262.075623,366.749481 
	C261.901154,366.627625 261.883270,366.448181 261.998169,366.032654 
	C262.200500,365.988953 262.291687,366.177094 262.330261,366.375488 
	C262.348785,366.471008 262.268005,366.585815 262.075623,366.749481 
z"/>
<path fill="#EFF1EA" opacity="1.000000" stroke="none" 
	d="
M236.636322,235.871078 
	C236.698395,236.184891 236.442276,236.467087 235.899704,236.807220 
	C235.848221,236.523270 236.083191,236.181366 236.636322,235.871078 
z"/>
<path fill="#DDE0E3" opacity="1.000000" stroke="none" 
	d="
M246.799286,442.387695 
	C246.998886,442.025055 247.223495,442.018951 247.784607,442.032654 
	C247.688828,442.283051 247.256577,442.513641 246.799286,442.387695 
z"/>
<path fill="#E9EDE7" opacity="1.000000" stroke="none" 
	d="
M77.453514,80.530281 
	C77.422539,80.477501 77.484489,80.583061 77.453514,80.530281 
z"/>
<path fill="#050506" opacity="1.000000" stroke="none" 
	d="
M352.975464,408.910461 
	C346.718719,408.908813 340.957001,408.908813 335.195251,408.908813 
	C334.838715,408.511322 334.482147,408.113831 334.125580,407.716339 
	C360.570618,390.884155 381.376495,368.990601 396.604706,341.243866 
	C396.604706,343.941864 396.629883,346.640167 396.599945,349.337830 
	C396.513214,357.153595 396.244781,364.971008 396.336121,372.784393 
	C396.551422,391.203949 381.247192,408.096313 359.956696,408.873810 
	C357.797028,408.952698 355.632660,408.902466 352.975464,408.910461 
z"/>
<path fill="#EDF0EA" opacity="1.000000" stroke="none" 
	d="
M333.545776,383.470032 
	C333.575684,383.521423 333.515900,383.418640 333.545776,383.470032 
z"/>
<path fill="#101315" opacity="1.000000" stroke="none" 
	d="
M300.046539,185.648697 
	C297.561920,183.386124 299.833984,182.258850 301.364288,181.881882 
	C303.855530,181.268219 306.521637,181.364502 309.834534,181.258331 
	C311.331726,181.667603 312.108337,181.979721 312.884918,182.291840 
	C314.003143,183.386017 315.121368,184.480179 316.527588,185.978363 
	C317.133881,186.707413 317.452209,187.032471 317.770538,187.357529 
	C317.698578,187.680557 317.715637,187.998779 317.809204,188.759613 
	C318.080750,191.126343 318.364838,193.045670 318.648926,194.964996 
	C317.647552,196.720444 316.646179,198.475891 315.235046,199.862610 
	C313.500519,197.182602 312.175751,194.871292 310.850952,192.559998 
	C310.850952,192.559998 310.748230,192.264786 310.504333,191.889008 
	C306.855835,189.558395 303.451172,187.603546 300.046539,185.648697 
z"/>
<path fill="#EFF1EA" opacity="1.000000" stroke="none" 
	d="
M300.024902,185.984360 
	C303.451172,187.603546 306.855835,189.558395 310.374451,191.802109 
	C307.175842,190.532852 303.863220,188.974747 300.275208,187.208221 
	C299.999817,186.999802 299.992676,186.992676 299.992676,186.992676 
	C299.996185,186.768463 299.999725,186.544250 300.024902,185.984360 
z"/>
<path fill="#EFF1EA" opacity="1.000000" stroke="none" 
	d="
M310.637146,192.912201 
	C312.175751,194.871292 313.500519,197.182602 314.883362,199.841721 
	C313.496460,200.985657 312.051422,201.781784 310.606415,202.577911 
	C310.423676,202.357895 310.240906,202.137863 310.058167,201.917831 
	C310.787079,200.920380 311.515961,199.922928 311.800079,199.534119 
	C311.266479,197.104065 310.844910,195.184235 310.637146,192.912201 
z"/>
<path fill="#EFF1EA" opacity="1.000000" stroke="none" 
	d="
M319.037811,194.943146 
	C318.364838,193.045670 318.080750,191.126343 317.882080,188.988129 
	C322.670349,190.988205 322.976776,192.280060 319.037811,194.943146 
z"/>
<path fill="#EFF1EA" opacity="1.000000" stroke="none" 
	d="
M318.294189,187.349701 
	C317.452209,187.032471 317.133881,186.707413 316.812378,186.166473 
	C317.454559,185.530975 318.099915,185.111374 318.745270,184.691803 
	C318.769470,185.575150 318.793671,186.458511 318.294189,187.349701 
z"/>
<path fill="#EFF1EA" opacity="1.000000" stroke="none" 
	d="
M312.910156,181.915070 
	C312.108337,181.979721 311.331726,181.667603 310.275726,181.205963 
	C310.572784,180.445068 311.149231,179.833694 311.725708,179.222336 
	C312.128937,179.994324 312.532196,180.766312 312.910156,181.915070 
z"/>
<path fill="#EFF1EA" opacity="1.000000" stroke="none" 
	d="
M243.494354,237.310333 
	C242.963608,236.974472 242.645813,236.430267 242.328018,235.886078 
	C242.600159,235.762756 242.872299,235.639435 243.144424,235.516113 
	C243.332047,236.044739 243.519669,236.573349 243.494354,237.310333 
z"/>
<path fill="#EFF1EA" opacity="1.000000" stroke="none" 
	d="
M288.517212,187.846771 
	C288.108459,188.345093 287.556366,188.648926 287.004242,188.952774 
	C286.899811,188.725845 286.795349,188.498917 286.690918,188.271988 
	C287.251892,188.065430 287.812866,187.858871 288.517212,187.846771 
z"/>
<path fill="#EFF1EA" opacity="1.000000" stroke="none" 
	d="
M237.126678,240.147217 
	C236.820374,240.037704 236.659317,239.780685 236.498260,239.523666 
	C236.756149,239.682343 237.014023,239.841019 237.126678,240.147217 
z"/>
<path fill="#EFF1EA" opacity="1.000000" stroke="none" 
	d="
M294.801636,182.677673 
	C294.956879,183.039902 294.909851,183.352753 294.862823,183.665619 
	C294.774994,183.319855 294.687164,182.974091 294.801636,182.677673 
z"/>
<path fill="#EFF1EA" opacity="1.000000" stroke="none" 
	d="
M300.002197,187.003235 
	C299.663147,187.247971 299.321747,187.489273 298.980316,187.730591 
	C298.896149,187.611008 298.811981,187.491409 298.727844,187.371826 
	C298.994080,187.255981 299.260345,187.140152 299.759644,187.008499 
	C299.992676,186.992676 299.999817,186.999802 300.002197,187.003235 
z"/>
<path fill="#EFF1EA" opacity="1.000000" stroke="none" 
	d="
M321.467224,200.451965 
	C321.521423,200.420090 321.413025,200.483841 321.467224,200.451965 
z"/>
<path fill="#E6EAE7" opacity="1.000000" stroke="none" 
	d="
M71.997360,262.002472 
	C72.411125,262.120514 72.827431,262.236084 73.243736,262.351685 
	C72.911491,262.363373 72.579254,262.375092 72.125061,262.191040 
	C72.003120,261.995270 71.999908,262.000000 71.997360,262.002472 
z"/>
<path fill="#E6EAE7" opacity="1.000000" stroke="none" 
	d="
M162.004974,274.003906 
	C161.662766,274.250031 161.320557,274.496185 160.978363,274.742371 
	C160.892105,274.621368 160.805847,274.500397 160.719589,274.379395 
	C160.987442,274.258087 161.255295,274.136780 161.761566,274.007751 
	C162.000000,274.000000 162.004990,274.003906 162.004974,274.003906 
z"/>
<path fill="#E6EAE7" opacity="1.000000" stroke="none" 
	d="
M98.010498,257.737427 
	C97.909302,257.583710 97.959457,257.428864 98.009613,257.273987 
	C98.060364,257.428070 98.111107,257.582184 98.010498,257.737427 
z"/>
<path fill="#E6EAE7" opacity="1.000000" stroke="none" 
	d="
M161.997986,273.997559 
	C162.087082,273.961456 162.178192,273.927795 162.137146,273.949005 
	C162.004990,274.003906 162.000000,274.000000 161.997986,273.997559 
z"/>
</svg>